<svg width="900" height="280" viewBox="0 0 900 280" fill="none" xmlns="http://www.w3.org/2000/svg">
  <defs>
    <linearGradient id="bg" x1="0" y1="0" x2="280" y2="280" gradientUnits="userSpaceOnUse">
      <stop offset="0" stop-color="#1FB57A"/>
      <stop offset="0.55" stop-color="#1E9E8A"/>
      <stop offset="1" stop-color="#2E7DD1"/>
    </linearGradient>
    <linearGradient id="bolt" x1="110" y1="80" x2="180" y2="210" gradientUnits="userSpaceOnUse">
      <stop offset="0" stop-color="#FFFFFF"/>
      <stop offset="1" stop-color="#EAF6FF"/>
    </linearGradient>
  </defs>

  <!-- icon glyph -->
  <g transform="translate(0,12) scale(0.5)">
    <rect x="0" y="0" width="512" height="512" rx="112" fill="url(#bg)"/>
    <path d="M 128 320 A 128 128 0 1 1 384 320"
          stroke="#FFFFFF" stroke-opacity="0.28" stroke-width="34" stroke-linecap="round" fill="none"/>
    <path d="M 128 320 A 128 128 0 1 1 372 268"
          stroke="#EAFBE9" stroke-width="34" stroke-linecap="round" fill="none"/>
    <path fill="url(#bolt)" d="M 281 150 L 196 290 L 248 290 L 226 392 L 322 244 L 266 244 Z"/>
    <g transform="rotate(22 372 214)">
      <path fill="#BFF3C9" d="M 372 168 C 410 196 410 232 372 260 C 334 232 334 196 372 168 Z"/>
      <path stroke="#1E9E8A" stroke-width="6" stroke-linecap="round" d="M 372 178 L 372 250"/>
    </g>
  </g>

  <!-- wordmark -->
  <text x="300" y="128" font-family="Helvetica, Arial, sans-serif" font-size="62" font-weight="700" fill="#1E9E8A">Energy Dashboard</text>
  <text x="300" y="196" font-family="Helvetica, Arial, sans-serif" font-size="62" font-weight="700" fill="#2E7DD1">Sensors</text>
</svg>
